<svg id="Capa_1" enable-background="new 0 0 512 512" height="512" viewBox="0 0 512 512" width="512" xmlns="http://www.w3.org/2000/svg" xmlns:xlink="http://www.w3.org/1999/xlink"><linearGradient id="SVGID_1_" gradientUnits="userSpaceOnUse" x1="256" x2="256" y1="476.982" y2="35.019"><stop offset="0" stop-color="#00b59c"/><stop offset="1" stop-color="#9cffac"/></linearGradient><g><g><path d="m15 245.019h196c33.084 0 60-26.916 60-60s-26.916-60-60-60h-15c-8.284 0-15 6.716-15 15s6.716 15 15 15h15c16.542 0 30 13.458 30 30s-13.458 30-30 30h-196c-8.284 0-15 6.716-15 15s6.716 15 15 15zm241-150c8.284 0 15-6.716 15-15s-6.716-15-15-15-15 6.716-15 15 6.716 15 15 15zm-240 30h17.58c1.863 5.254 4.677 10.058 8.233 14.213l-8.803 15.248c-4.142 7.174-1.684 16.348 5.49 20.49 7.15 4.128 16.335 1.708 20.49-5.49l8.791-15.227c2.667.494 5.411.766 8.218.766s5.552-.271 8.218-.766l8.791 15.227c4.163 7.21 13.35 9.613 20.49 5.49 7.174-4.142 9.632-13.316 5.49-20.49l-8.804-15.248c3.556-4.155 6.37-8.959 8.233-14.213h17.583c8.284 0 15-6.716 15-15s-6.716-15-15-15h-17.58c-1.863-5.254-4.677-10.058-8.233-14.213l8.804-15.248c4.142-7.174 1.684-16.348-5.49-20.49s-16.349-1.684-20.49 5.49l-8.791 15.227c-2.667-.494-5.411-.766-8.218-.766s-5.552.271-8.218.766l-8.794-15.228c-4.142-7.174-13.315-9.633-20.49-5.49-7.174 4.142-9.632 13.316-5.49 20.49l8.804 15.248c-3.556 4.155-6.37 8.959-8.233 14.213h-17.581c-8.284 0-15 6.716-15 15s6.716 15.001 15 15.001zm60-30c8.271 0 15 6.729 15 15s-6.729 15-15 15-15-6.729-15-15 6.729-15 15-15zm30 240h-91c-8.284 0-15 6.716-15 15s6.716 15 15 15h91c8.271 0 15 6.729 15 15s-6.729 15-15 15c-8.284 0-15 6.716-15 15s6.716 15 15 15c24.813 0 45-20.187 45-45s-20.187-45-45-45zm210 60h-17.58c-1.864-5.254-4.677-10.058-8.233-14.213l8.804-15.248c4.143-7.174 1.685-16.348-5.49-20.49-7.175-4.143-16.349-1.684-20.49 5.49l-8.792 15.227c-2.667-.494-5.411-.766-8.219-.766s-5.552.271-8.218.766l-8.791-15.227c-4.142-7.174-13.316-9.632-20.49-5.49s-9.632 13.316-5.49 20.49l8.804 15.248c-3.556 4.155-6.37 8.959-8.233 14.213h-17.582c-8.284 0-15 6.716-15 15s6.716 15 15 15h17.58c1.863 5.254 4.677 10.058 8.233 14.213l-8.804 15.248c-4.142 7.174-1.684 16.348 5.49 20.49 7.15 4.128 16.335 1.708 20.49-5.49l8.791-15.227c2.667.494 5.411.766 8.218.766s5.552-.271 8.219-.766l8.792 15.227c4.162 7.208 13.35 9.614 20.49 5.49 7.175-4.142 9.633-13.316 5.49-20.49l-8.804-15.248c3.556-4.155 6.37-8.959 8.233-14.213h17.582c8.284 0 15-6.716 15-15s-6.715-15-15-15zm-60 30c-8.271 0-15-6.729-15-15s6.729-15 15-15 15 6.729 15 15-6.729 15-15 15zm241-150c-8.284 0-15 6.716-15 15s6.716 15 15 15 15-6.716 15-15c0-8.285-6.716-15-15-15zm-16.753-81.967-11.704-11.703c5.218-7.869 9-16.768 10.948-26.33h16.509c8.284 0 15-6.716 15-15s-6.716-15-15-15h-16.509c-1.948-9.562-5.731-18.461-10.948-26.33l11.704-11.703c5.858-5.858 5.858-15.355 0-21.213-5.856-5.858-15.354-5.858-21.213 0l-11.704 11.703c-7.869-5.217-16.768-8.999-26.329-10.948v-16.509c0-8.284-6.716-15-15-15s-15 6.716-15 15v16.509c-9.562 1.949-18.461 5.731-26.33 10.948l-11.703-11.704c-5.857-5.859-15.355-5.857-21.213 0-5.858 5.858-5.858 15.355 0 21.213l11.704 11.704c-5.218 7.869-9 16.768-10.948 26.33h-16.511c-8.284 0-15 6.716-15 15s6.716 15 15 15h16.509c1.948 9.562 5.731 18.46 10.948 26.33l-11.704 11.704c-5.858 5.858-5.858 15.355 0 21.213 5.857 5.858 15.355 5.858 21.213 0l11.703-11.704c7.869 5.218 16.768 9 26.33 10.948v16.509c0 8.284 6.716 15 15 15s15-6.716 15-15v-16.509c9.561-1.949 18.46-5.731 26.329-10.948l11.704 11.704c5.857 5.858 15.355 5.858 21.213 0 5.86-5.859 5.86-15.357.002-21.214zm-74.247-8.033c-24.813 0-45-20.187-45-45s20.187-45 45-45 45 20.187 45 45-20.186 45-45 45zm0-60c-8.284 0-15 6.716-15 15s6.716 15 15 15 15-6.716 15-15c0-8.285-6.716-15-15-15zm-15 150h-376c-8.284 0-15 6.716-15 15s6.716 15 15 15h376c16.542 0 30 13.458 30 30s-13.458 30-30 30h-15c-8.284 0-15 6.716-15 15s6.716 15 15 15h15c33.084 0 60-26.916 60-60s-26.916-60-60-60z" fill="url(#SVGID_1_)"/></g></g></svg>