<svg height="512" viewBox="0 0 58 58" width="512" xmlns="http://www.w3.org/2000/svg"><g id="Page-1" fill="none" fill-rule="evenodd"><g id="038---Cloud-Error" fill-rule="nonzero" transform="translate(0 -1)"><path id="Shape" d="m58 26c0 6.0751322-4.9248678 11-11 11h-36c-6.07513225 0-11-4.9248678-11-11s4.92486775-11 11-11c.623565-.0030798 1.2461215.0504735 1.86.16 1.427149-3.0326141 4.4212431-5.02097 7.77-5.16 1.9678376-6.08875505 8.0738821-9.84005753 14.3946544-8.84348326s10.976386 6.4446301 10.9753456 12.84348326c.019924.3497165.019924.7002835 0 1.05.34 0 .7-.05 1-.05 6.0751322 0 11 4.9248678 11 11z" fill="#46b29d"/><path id="Shape" d="m58 26c0 6.0751322-4.9248678 11-11 11h-5.11c0-24.93-21.26-27-21.26-27 1.9678376-6.08875505 8.0738821-9.84005753 14.3946544-8.84348326s10.976386 6.4446301 10.9753456 12.84348326c.019924.3497165.019924.7002835 0 1.05.34 0 .7-.05 1-.05 6.0751322 0 11 4.9248678 11 11z" fill="#81ccb8"/><path id="Shape" d="m39.83 9.15c-.2923118.00001923-.5699973-.12786225-.76-.35-1.5177498-1.77444941-3.7349995-2.79723347-6.07-2.8-.5522847 0-1-.44771525-1-1s.4477153-1 1-1c2.9180174.00022682 5.6903707 1.27499794 7.59 3.49.1724034.201559.2576705.46335301.2370412.72778336-.0206293.26443034-.145465.50983336-.3470412.68221664-.179713.15852397-.4103774.24724105-.65.25z" fill="#fff"/><path id="Shape" d="m29 59h20c2.5520522-.015158 4.8936133-1.4180213 6.1108767-3.6611152 1.2172633-2.2430938 1.1173008-4.9709028-.2608767-7.1188848l-20-30.11c-1.2959066-1.9609884-3.4895002-3.1406736-5.84-3.1406736s-4.5440934 1.1796852-5.84 3.1406736l-20.01 30.09c-1.388054 2.1472979-1.49490713 4.8805738-.27872365 7.1296802s3.56189317 3.6561817 6.11872365 3.6703198z" fill="#e57e25"/><path id="Shape" d="m9 55c-1.10934687.020634-2.13518413-.5871262-2.65-1.57-.52202535-.9465679-.46791094-2.1061624.14-3l20-30.08c.5558236-.8379356 1.4944773-1.3416876 2.5-1.3416876s1.9441764.503752 2.5 1.3416876l20 30.11c.6125106.8922979.6667484 2.0545367.14 3-.5197045.9647597-1.5343276 1.5588736-2.63 1.54z" fill="#f0c419"/><g fill="#2c2f38"><path id="Shape" d="m32 30c0 1.66-3 11-3 11s-3-9.34-3-11c0-1.6568542 1.3431458-3 3-3s3 1.3431458 3 3z"/><circle id="Oval" cx="29" cy="48" r="3"/></g></g></g></svg>