<svg id="Capa_1" enable-background="new 0 0 496.445 496.445" height="512" viewBox="0 0 496.445 496.445" width="512" xmlns="http://www.w3.org/2000/svg"><g><path d="m246.03 496.445c-65.351 0-126.726-25.971-172.819-73.13-45.776-46.833-70.986-109.017-70.986-175.093s25.21-128.259 70.986-175.093c46.093-47.158 107.468-73.129 172.819-73.129s126.726 25.971 172.819 73.129c45.776 46.834 70.986 109.016 70.986 175.093s-25.21 128.26-70.986 175.093c-46.093 47.159-107.468 73.13-172.819 73.13z" fill="#fdb441"/><ellipse cx="243.268" cy="243.905" fill="#fedf30" rx="195.235" ry="200.552"/><path d="m120.152 243.905c0-98.105 68.614-179.757 159.21-197.136-11.688-2.242-23.772-3.416-36.093-3.416-107.825 0-195.235 89.79-195.235 200.552s87.409 200.552 195.235 200.552c12.321 0 24.414-1.18 36.102-3.422-90.597-17.38-159.219-99.025-159.219-197.13z" fill="#fed402"/><g fill="#eaf9fa"><path d="m474.705 386.48h-49.689c-10.789 0-19.536-8.747-19.536-19.536 0-10.789 8.747-19.536 19.536-19.536h20.023c10.582 0 19.594-8.229 19.97-18.804.395-11.102-8.488-20.226-19.502-20.226h-93.882c-10.778 0-19.515-8.737-19.515-19.515 0-10.778 8.737-19.515 19.515-19.515h100.509c10.582 0 19.594-8.229 19.97-18.804.395-11.102-8.488-20.226-19.502-20.226h-280.456c-10.582 0-19.594 8.228-19.97 18.803-.395 11.102 8.488 20.227 19.502 20.227h72.997c10.778 0 19.515 8.737 19.515 19.515 0 10.778-8.737 19.515-19.515 19.515h-16.456c-10.582 0-19.594 8.229-19.97 18.804-.395 11.102 8.488 20.226 19.502 20.226h110.674c10.789 0 19.536 8.747 19.536 19.536 0 10.789-8.747 19.536-19.536 19.536h-72.635c-10.778 0-19.515 8.737-19.515 19.515 0 10.778 8.737 19.515 19.515 19.515h208.915c10.778 0 19.515-8.737 19.515-19.515 0-10.778-8.738-19.515-19.515-19.515z"/><path d="m372.811 191.287h101.785c10.778 0 19.515-8.737 19.515-19.515 0-10.778-8.737-19.515-19.515-19.515h-101.785c-10.778 0-19.515 8.737-19.515 19.515 0 10.778 8.738 19.515 19.515 19.515z"/><path d="m238.567 191.287h55.818c10.778 0 19.515-8.737 19.515-19.515 0-10.778-8.737-19.515-19.515-19.515h-55.818c-10.778 0-19.515 8.737-19.515 19.515 0 10.778 8.737 19.515 19.515 19.515z"/></g></g></svg>