<svg id="Capa_1" enable-background="new 0 0 512 512" height="512" viewBox="0 0 512 512" width="512" xmlns="http://www.w3.org/2000/svg"><g><g><path d="m463.664 217.629c3.94-13.125 5.609-24.74 5.609-38.055 0-83.274-67.425-151.023-150.301-151.023-28.927 0-57.019 8.279-81.238 23.941-20.799 13.45-37.909 31.745-49.928 53.288-12.882-5.18-26.807-7.791-40.771-7.612-57.401.746-104.194 48.286-104.308 105.973-.011 5.12.345 10.247 1.059 15.298-25.728 11.13-43.786 36.84-43.786 66.702 0 40.025 32.437 72.588 72.308 72.588h367.385c39.87 0 72.308-32.563 72.308-72.588-.001-31.266-19.757-58.485-48.337-68.512zm-23.972 121.1h-367.384c-28.843 0-52.308-23.59-52.308-52.588 0-28.997 23.465-52.588 52.308-52.588 5.381 0 9.797-4.258 9.993-9.635.197-5.377-3.897-9.946-9.264-10.338l-9.899-.724c-.28-2.878-.417-5.777-.412-8.674.093-46.824 38.031-85.411 84.569-86.017 14.054-.172 28.027 3.12 40.409 9.551.149.077.299.151.451.22.142.085.288.168.436.247 28.098 15.018 45.553 44.207 45.553 76.177 0 5.523 4.477 10 10 10s10-4.477 10-10c0-36.415-18.404-69.905-48.567-89.367 22.981-40.642 66.54-66.441 113.396-66.441 71.848 0 130.301 58.777 130.301 131.023 0 16.582-3.139 28.604-7.853 41.555-1.008 2.77-.742 5.844.726 8.4 1.469 2.556 3.989 4.335 6.891 4.859 24.894 4.507 42.962 26.272 42.962 51.752 0 28.998-23.465 52.588-52.308 52.588z" fill="#020288"/></g><g><g><path d="m294.906 444.369c0 21.584-17.419 39.081-38.906 39.081s-38.906-17.497-38.906-39.081 38.906-62.656 38.906-62.656 38.906 41.072 38.906 62.656z" fill="#b2f0fb"/></g><g><path d="m429.17 444.369c0 21.584-17.419 39.081-38.906 39.081s-38.906-17.497-38.906-39.081 38.906-62.656 38.906-62.656 38.906 41.072 38.906 62.656z" fill="#b2f0fb"/></g><path d="m160.641 444.369c0 21.584-17.419 39.081-38.906 39.081s-38.905-17.497-38.905-39.081 38.906-62.656 38.906-62.656 38.905 41.072 38.905 62.656z" fill="#b2f0fb"/></g></g></svg>