<svg height="512" viewBox="0 0 512 512" width="512" xmlns="http://www.w3.org/2000/svg"><g id="flat"><path d="m328 392-24 16v32h64v-32z" fill="#e82f3e"/><path d="m328 440a8 8 0 0 1 -8-8v-8a8 8 0 0 1 16 0v8a8 8 0 0 1 -8 8z" fill="#961b20"/><path d="m144 160 28.126 73.126a75 75 0 0 1 -2.919 60.46 75 75 0 0 0 16.21 88.645l62.583 57.769-14.867-59.467a74.993 74.993 0 0 1 14.713-65.678l24.308-29.71a74.993 74.993 0 0 0 14.713-65.678l-14.867-59.467-8-8h-128z" fill="#eaeae8"/><path d="m48 144-24 80h40l-24 80 80-104h-40l24-56z" fill="#fbb540"/><path d="m432 160-24 40h48l-96 96 24-72h-40l32-56 16-24z" fill="#fbb540"/><path d="m72 312-16 24 16 24 40-24-16-24z" fill="#d18d28"/><path d="m367.992 392a7.964 7.964 0 0 1 -4.108-1.141l-36.845-22.107-20.509 6.836a8 8 0 1 1 -5.06-15.178l24-8a8 8 0 0 1 6.646.729l40 24a8 8 0 0 1 -4.124 14.861z" fill="#961b20"/><path d="m114.132 448a8.006 8.006 0 0 1 -7.59-10.532l8-24a8 8 0 1 1 15.178 5.06l-8 24a8 8 0 0 1 -7.588 5.472z" fill="#5f4623"/><path d="m416.005 448a8.007 8.007 0 0 1 -7.751-10l9.942-38.5a8 8 0 0 1 15.492 4l-9.942 38.5a8 8 0 0 1 -7.741 6z" fill="#48351b"/><g fill="#cbcbcb"><path d="m224 232h-56a8 8 0 0 1 0-16h56a8 8 0 0 1 0 16z"/><path d="m264 232h-16a8 8 0 0 1 0-16h16a8 8 0 0 1 0 16z"/><path d="m264 296h-24a8 8 0 0 1 0-16h24a8 8 0 0 1 0 16z"/><path d="m208 296h-8a8 8 0 0 1 0-16h8a8 8 0 0 1 0 16z"/><path d="m200 368h-24a8 8 0 0 1 0-16h24a8 8 0 0 1 0 16z"/><path d="m280 336h-56a8 8 0 0 1 0-16h56a8 8 0 0 1 0 16z"/><path d="m200 264h-48a8 8 0 0 1 0-16h48a8 8 0 0 1 0 16z"/></g><path d="m392 328a8 8 0 0 1 -5.657-13.657l8-8a8 8 0 0 1 11.314 11.314l-8 8a7.976 7.976 0 0 1 -5.657 2.343z" fill="#8f6934"/><path d="m328 320a7.976 7.976 0 0 1 -5.657-2.343l-8-8a8 8 0 0 1 11.314-11.314l8 8a8 8 0 0 1 -5.657 13.657z" fill="#5f4623"/><path d="m320 272a8 8 0 0 1 -5.657-13.657l8-8a8 8 0 0 1 11.314 11.314l-8 8a7.976 7.976 0 0 1 -5.657 2.343z" fill="#5f4623"/><path d="m64 408a8 8 0 0 1 -5.657-13.657l8-8a8 8 0 0 1 11.314 11.314l-8 8a7.976 7.976 0 0 1 -5.657 2.343z" fill="#8f6934"/><path d="m120 296a7.976 7.976 0 0 1 -5.657-2.343l-8-8a8 8 0 0 1 11.314-11.314l8 8a8 8 0 0 1 -5.657 13.657z" fill="#8f6934"/><path d="m488 112a32.006 32.006 0 0 0 -43.316-29.935 40 40 0 0 0 -44.684 13.935 40 40 0 0 0 -58.94 12.53 39.962 39.962 0 0 0 -50.778-6.113 47.968 47.968 0 0 0 -68.564 0 39.962 39.962 0 0 0 -50.778 6.113 40 40 0 0 0 -58.94-12.53 40 40 0 0 0 -44.684-13.935 32 32 0 1 0 -20.216 60.67 39.993 39.993 0 0 0 56.9 9.265 39.983 39.983 0 0 0 61.06 3.47 39.985 39.985 0 0 0 56.658 14.113 47.968 47.968 0 0 0 68.564 0 39.985 39.985 0 0 0 56.658-14.113 39.983 39.983 0 0 0 61.06-3.47 39.993 39.993 0 0 0 56.9-9.265 32.007 32.007 0 0 0 23.1-30.735z" fill="#cbcbcb"/><path d="m488 448h-464a8 8 0 0 1 0-16h464a8 8 0 0 1 0 16z" fill="#48351b"/><path d="m127.191 416a15.178 15.178 0 0 1 -14.4-19.979l5.88-17.642a15.18 15.18 0 0 1 14.4-10.379 15.178 15.178 0 0 1 14.4 19.979l-5.88 17.642a15.18 15.18 0 0 1 -14.4 10.379z" fill="#02a437"/><path d="m445.38 352-35.725 37.547a6 6 0 0 0 2.258 9.761l27.937 10.376a6 6 0 0 0 8.082-5.92z" fill="#aac16b"/></g></svg>